<svg xmlns="http://www.w3.org/2000/svg" fill="none" viewBox="0 0 80 80">
  
  
  
<g transform="matrix(5.714285714285714,0,0,5.714285714285714,0,0)"><path stroke="currentColor" stroke-linecap="round" stroke-linejoin="round" stroke-width="1.5" d="M.75 8.47L6.243 2.1a1 1 0 011.514 0L13.25 8.47"></path><path fill="#b1eae5" stroke="currentColor" stroke-linejoin="round" stroke-width="1.5" d="M2.673 6.245l3.568-4.157a1 1 0 011.518 0l3.568 4.157.204 1.453c.183 1.31.174 2.64-.027 3.948v0a1.357 1.357 0 01-1.34 1.15H3.836c-.67 0-1.24-.488-1.341-1.15v0a13.565 13.565 0 01-.027-3.948l.204-1.453z"></path><path fill="#ffffff" stroke="currentColor" stroke-linecap="round" stroke-linejoin="round" stroke-width="1.5" d="M7 8.089c.921 0 1.668.746 1.668 1.667v3.04H5.332v-3.04c0-.92.747-1.667 1.668-1.667z"></path></g></svg>