<svg xmlns="http://www.w3.org/2000/svg" fill="none" viewBox="0 0 250 250">
  
  
  
  
<g transform="matrix(17.857142857142858,0,0,17.857142857142858,0,0)"><path stroke="currentColor" stroke-width="1.5" d="M.96 10.268a3.132 3.132 0 002.753 2.76c1.07.12 2.167.222 3.287.222s2.218-.102 3.287-.222a3.132 3.132 0 002.753-2.76c.114-1.063.21-2.155.21-3.268s-.096-2.205-.21-3.269a3.132 3.132 0 00-2.753-2.76C9.217.853 8.12.75 7 .75S4.782.852 3.713.972A3.132 3.132 0 00.96 3.732C.846 4.794.75 5.886.75 7s.096 2.205.21 3.268z"></path><path stroke="currentColor" stroke-linecap="round" stroke-linejoin="round" stroke-width="1.5" d="M6.997 7.659c0-.361.294-.583.812-.93.48-.32.734-.737.62-1.304a1.488 1.488 0 00-1.147-1.148A1.476 1.476 0 005.536 5.71"></path><path stroke="currentColor" stroke-width="1.5" d="M6.996 9.738a.125.125 0 010-.25"></path><path stroke="currentColor" stroke-width="1.6" d="M6.996 9.738a.125.125 0 100-.25"></path></g></svg>